<svg width="82" height="82" viewBox="0 0 82 82" fill="none" xmlns="http://www.w3.org/2000/svg">
<path d="M54 0H28C12.536 0 0 12.536 0 28V54C0 69.464 12.536 82 28 82H54C69.464 82 82 69.464 82 54V28C82 12.536 69.464 0 54 0Z" fill="#FFF6D3"/>
<path d="M45.534 46.7781C45.4077 46.7781 45.2825 46.7532 45.1658 46.7048C45.0491 46.6565 44.9431 46.5856 44.8538 46.4963C44.7644 46.407 44.6935 46.3009 44.6452 46.1842C44.5969 46.0675 44.572 45.9424 44.572 45.816C44.572 45.6897 44.5969 45.5646 44.6452 45.4479C44.6935 45.3312 44.7644 45.2251 44.8538 45.1358C44.9431 45.0465 45.0491 44.9756 45.1658 44.9273C45.2825 44.8789 45.4077 44.854 45.534 44.854H49.072C50.6416 44.86 52.1515 44.2521 53.279 43.16C53.8298 42.63 54.268 41.9942 54.5673 41.2909C54.8666 40.5875 55.0208 39.8309 55.0208 39.0665C55.0208 38.3021 54.8666 37.5456 54.5673 36.8422C54.268 36.1388 53.8298 35.5031 53.279 34.973C52.1515 33.881 50.6416 33.273 49.072 33.279C48.846 33.279 48.641 33.288 48.461 33.306C48.261 33.326 48.061 33.3554 47.861 33.394C47.6354 33.4408 47.4006 33.4074 47.1969 33.2997C46.9932 33.192 46.8334 33.0168 46.745 32.8041C46.1574 31.354 45.1442 30.1159 43.839 29.253C42.3133 28.2476 40.4913 27.7906 38.6718 27.9568C36.8522 28.1231 35.1431 28.9028 33.825 30.168C33.096 30.8704 32.516 31.7124 32.1194 32.6437C31.7229 33.5751 31.518 34.5768 31.517 35.589C31.517 35.614 31.517 35.64 31.517 35.665V35.7051C31.5154 35.9627 31.4116 36.2091 31.2284 36.3902C31.0452 36.5714 30.7976 36.6724 30.54 36.671H30.485L30.316 36.663H30.188C29.0771 36.6593 28.0087 37.0899 27.211 37.863C26.821 38.238 26.5108 38.6877 26.2988 39.1855C26.0869 39.6832 25.9777 40.2186 25.9777 40.7595C25.9777 41.3005 26.0869 41.8359 26.2988 42.3336C26.5108 42.8313 26.821 43.2811 27.211 43.656C28.0088 44.4291 29.0771 44.8597 30.188 44.8561H34.94C35.1951 44.8561 35.4398 44.9574 35.6202 45.1378C35.8006 45.3182 35.902 45.5629 35.902 45.818C35.902 46.0732 35.8006 46.3179 35.6202 46.4983C35.4398 46.6787 35.1951 46.78 34.94 46.78H30.188C28.5552 46.7854 26.9849 46.1528 25.812 45.017C25.2383 44.4664 24.7819 43.8055 24.4701 43.0741C24.1583 42.3426 23.9976 41.5557 23.9976 40.7605C23.9976 39.9654 24.1583 39.1785 24.4701 38.447C24.7819 37.7155 25.2383 37.0546 25.812 36.504C26.8311 35.5139 28.1574 34.9009 29.572 34.766C29.7751 32.5009 30.7881 30.3849 32.425 28.806C34.0728 27.2221 36.2107 26.2462 38.487 26.039C40.7633 25.8318 43.0422 26.4056 44.949 27.6661C46.3591 28.5994 47.5011 29.8848 48.262 31.395C48.546 31.367 48.815 31.353 49.062 31.353C51.1537 31.3462 53.1653 32.1569 54.668 33.612C55.4019 34.3174 55.9857 35.1637 56.3846 36.1002C56.7834 37.0367 56.989 38.0441 56.989 39.062C56.989 40.08 56.7834 41.0874 56.3846 42.0239C55.9857 42.9604 55.4019 43.8067 54.668 44.512C53.1653 45.9672 51.1537 46.7778 49.062 46.771L45.534 46.7781Z" fill="#333333"/>
<path d="M39.511 36.1171C39.511 35.8548 39.6152 35.6032 39.8007 35.4177C39.9861 35.2323 40.2377 35.1281 40.5 35.1281C40.7623 35.1281 41.0138 35.2323 41.1993 35.4177C41.3848 35.6032 41.489 35.8548 41.489 36.1171V55.0381C41.489 55.3004 41.3848 55.5519 41.1993 55.7374C41.0138 55.9229 40.7623 56.0271 40.5 56.0271C40.2377 56.0271 39.9861 55.9229 39.8007 55.7374C39.6152 55.5519 39.511 55.3004 39.511 55.0381V36.1171Z" fill="#333333"/>
<path d="M47.302 40.7981C47.3933 40.8858 47.466 40.9911 47.5156 41.1076C47.5653 41.2241 47.5909 41.3494 47.5909 41.4761C47.5909 41.6027 47.5653 41.7281 47.5156 41.8446C47.466 41.9611 47.3933 42.0663 47.302 42.1541C47.1145 42.3342 46.8645 42.4348 46.6045 42.4348C46.3445 42.4348 46.0945 42.3342 45.907 42.1541L40.507 36.8541L35.107 42.1541C34.9195 42.3342 34.6695 42.4348 34.4095 42.4348C34.1495 42.4348 33.8995 42.3342 33.712 42.1541C33.6206 42.0663 33.5479 41.9611 33.4983 41.8446C33.4486 41.7281 33.423 41.6027 33.423 41.4761C33.423 41.3494 33.4486 41.2241 33.4983 41.1076C33.5479 40.9911 33.6206 40.8858 33.712 40.7981L39.812 34.8121C39.9995 34.632 40.2494 34.5314 40.5095 34.5314C40.7695 34.5314 41.0194 34.632 41.207 34.8121L47.3069 40.7981H47.302Z" fill="#333333"/>
<path d="M39.511 55.038V37.821L35.097 42.1508C34.9093 42.3324 34.6582 42.434 34.397 42.434C34.1358 42.434 33.8848 42.3324 33.697 42.1508C33.6058 42.063 33.5332 41.9578 33.4836 41.8413C33.4341 41.7248 33.4086 41.5995 33.4086 41.4728C33.4086 41.3462 33.4341 41.2209 33.4836 41.1044C33.5332 40.9879 33.6058 40.8827 33.697 40.7949L39.797 34.809C39.9849 34.6277 40.2358 34.5263 40.4969 34.5263C40.7581 34.5263 41.0091 34.6277 41.197 34.809L47.297 40.7949C47.3882 40.8827 47.4608 40.9879 47.5104 41.1044C47.5599 41.2209 47.5854 41.3462 47.5854 41.4728C47.5854 41.5995 47.5599 41.7248 47.5104 41.8413C47.4608 41.9578 47.3882 42.063 47.297 42.1508C47.1096 42.3309 46.8598 42.4316 46.6 42.4316C46.3401 42.4316 46.0903 42.3309 45.903 42.1508L41.489 37.821V55.038C41.4776 55.2926 41.3683 55.5328 41.1841 55.7089C40.9999 55.8851 40.7549 55.9833 40.5 55.9833C40.2451 55.9833 40.0001 55.8851 39.8159 55.7089C39.6317 55.5328 39.5224 55.2926 39.511 55.038ZM45.5341 46.778C45.2789 46.778 45.0342 46.6767 44.8538 46.4963C44.6733 46.3159 44.572 46.071 44.572 45.8159C44.572 45.5607 44.6733 45.3161 44.8538 45.1357C45.0342 44.9553 45.2789 44.854 45.5341 44.854H49.071C50.6412 44.8602 52.1516 44.2517 53.2791 43.1589C53.8299 42.6288 54.268 41.9931 54.5673 41.2897C54.8666 40.5864 55.0209 39.8298 55.0209 39.0654C55.0209 38.301 54.8666 37.5444 54.5673 36.841C54.268 36.1376 53.8299 35.5019 53.2791 34.9719C52.1512 33.8798 50.641 33.272 49.071 33.278C48.846 33.278 48.6411 33.2869 48.4611 33.3049C48.2597 33.3238 48.0593 33.3533 47.861 33.393C47.6354 33.4395 47.4006 33.4059 47.197 33.2983C46.9934 33.1906 46.8336 33.0155 46.745 32.8029C46.1575 31.3525 45.1443 30.1141 43.839 29.2509C42.3134 28.2458 40.4916 27.7888 38.6722 27.955C36.8529 28.1213 35.1441 28.901 33.826 30.166C33.097 30.8683 32.5169 31.7102 32.1204 32.6416C31.7238 33.5729 31.5189 34.5746 31.5179 35.5869C31.5179 35.6119 31.5179 35.639 31.5179 35.664V35.7041C31.5173 35.8316 31.4916 35.9578 31.4421 36.0754C31.3927 36.193 31.3205 36.2996 31.2297 36.3894C31.139 36.4791 31.0315 36.5502 30.9133 36.5983C30.7952 36.6465 30.6686 36.6707 30.541 36.6699H30.486L30.318 36.663H30.1899C29.079 36.6588 28.0105 37.0895 27.213 37.863C26.8229 38.2377 26.5126 38.6874 26.3007 39.185C26.0887 39.6827 25.9794 40.2181 25.9794 40.759C25.9794 41.2999 26.0887 41.8353 26.3007 42.333C26.5126 42.8306 26.8229 43.2802 27.213 43.655C28.0106 44.4283 29.079 44.8589 30.1899 44.8549H34.942C35.1972 44.8549 35.4418 44.9563 35.6222 45.1367C35.8026 45.3171 35.9041 45.5617 35.9041 45.8168C35.9041 46.072 35.8026 46.3169 35.6222 46.4973C35.4418 46.6777 35.1972 46.779 34.942 46.779H30.1899C28.5569 46.7845 26.9863 46.1519 25.813 45.0161C25.2401 44.465 24.7843 43.8039 24.473 43.0725C24.1617 42.3411 24.0012 41.5544 24.0012 40.7595C24.0012 39.9646 24.1617 39.1779 24.473 38.4465C24.7843 37.7151 25.2401 37.0539 25.813 36.5029C26.8342 35.5134 28.1623 34.9018 29.578 34.769C29.781 32.504 30.7936 30.3881 32.4301 28.809C34.0779 27.2251 36.2158 26.2491 38.4921 26.0419C40.7683 25.8347 43.0472 26.4085 44.954 27.6689C46.3644 28.6024 47.5064 29.8882 48.267 31.3989C48.551 31.3709 48.82 31.3569 49.067 31.3569C51.1591 31.35 53.171 32.1607 54.674 33.6159C55.4079 34.3213 55.9918 35.1677 56.3906 36.1042C56.7895 37.0407 56.9951 38.048 56.9951 39.0659C56.9951 40.0838 56.7895 41.0913 56.3906 42.0278C55.9918 42.9643 55.4079 43.8107 54.674 44.5161C53.171 45.9713 51.1591 46.7817 49.067 46.7749L45.5341 46.778Z" fill="#D6AB00"/>
</svg>
