<svg width="82" height="82" viewBox="0 0 82 82" fill="none" xmlns="http://www.w3.org/2000/svg">
<path d="M54 0H28C12.536 0 0 12.536 0 28V54C0 69.464 12.536 82 28 82H54C69.464 82 82 69.464 82 54V28C82 12.536 69.464 0 54 0Z" fill="#E4FFEE"/>
<path d="M39.866 60C39.3244 60.0009 38.8002 59.8093 38.3868 59.4595C37.9734 59.1096 37.6977 58.6244 37.609 58.0901L37.176 55.49C36.3333 55.2308 35.5156 54.8961 34.733 54.49L32.561 56.0349C32.1766 56.3133 31.7137 56.4625 31.239 56.4609C30.9386 56.4612 30.641 56.4019 30.3636 56.2864C30.0862 56.1709 29.8345 56.0016 29.623 55.7881L27.323 53.488C26.9388 53.1064 26.703 52.6006 26.6578 52.061C26.6125 51.5214 26.7608 50.9832 27.076 50.543L28.599 48.4251C28.1668 47.6231 27.8125 46.7817 27.541 45.9121L24.913 45.4651C24.3769 45.3766 23.8899 45.0999 23.5393 44.6848C23.1887 44.2697 22.9975 43.7433 23 43.2V39.947C22.9989 39.4054 23.1904 38.881 23.5403 38.4675C23.8902 38.0541 24.3757 37.7784 24.91 37.6899L27.476 37.2571C27.7376 36.3837 28.0818 35.5371 28.504 34.729L26.959 32.5569C26.6452 32.1161 26.4977 31.5785 26.5429 31.0393C26.5882 30.5001 26.8231 29.9944 27.206 29.6121L29.517 27.312C29.899 26.9286 30.4048 26.6932 30.9442 26.648C31.4836 26.6027 32.0215 26.7505 32.462 27.0649L34.588 28.596C35.3894 28.1631 36.2306 27.8086 37.1 27.5371L37.548 24.9089C37.6368 24.3757 37.9118 23.8913 38.3242 23.5418C38.7365 23.1922 39.2594 23.0002 39.8 23H43.054C43.5954 22.9991 44.1196 23.1904 44.533 23.54C44.9464 23.8897 45.2221 24.3749 45.311 24.9089L45.743 27.4751C46.647 27.7474 47.5221 28.1074 48.356 28.5501L50.505 27.02C50.8892 26.7417 51.3517 26.5926 51.826 26.594C52.1264 26.5936 52.424 26.6527 52.7013 26.7681C52.9787 26.8834 53.2305 27.0528 53.442 27.2661L55.742 29.5659C56.1265 29.9476 56.3624 30.4538 56.4077 30.9937C56.453 31.5335 56.3046 32.0716 55.989 32.512L54.459 34.6531C54.8843 35.4585 55.2335 36.3019 55.502 37.1721L58.102 37.613C58.6357 37.6997 59.1204 37.9751 59.468 38.3892C59.8157 38.8032 60.003 39.3283 59.996 39.8689V43.1231C59.997 43.6645 59.8055 44.1887 59.4559 44.6021C59.1062 45.0154 58.6211 45.291 58.087 45.3799L55.487 45.813C55.2188 46.6837 54.8696 47.5274 54.444 48.333L55.974 50.481C56.2879 50.9217 56.4353 51.4596 56.3901 51.9988C56.3449 52.538 56.1099 53.0437 55.727 53.426L53.427 55.7261C53.045 56.1095 52.5392 56.3447 51.9999 56.3899C51.4605 56.4351 50.9226 56.2874 50.482 55.9729L48.341 54.4431C47.5351 54.8681 46.6915 55.2172 45.821 55.4861L45.381 58.0859C45.2924 58.6202 45.0167 59.1057 44.6033 59.4556C44.1899 59.8054 43.6656 59.997 43.124 59.9961L39.866 60ZM35.198 52.3789C36.1917 52.9515 37.2575 53.3887 38.367 53.679C38.5617 53.7288 38.7376 53.8343 38.8735 53.9824C39.0093 54.1305 39.0991 54.3147 39.132 54.5129L39.673 57.76C39.6805 57.8075 39.7048 57.8508 39.7415 57.8818C39.7782 57.9129 39.8249 57.9295 39.873 57.929H43.127C43.1751 57.9295 43.2218 57.9129 43.2585 57.8818C43.2953 57.8508 43.3196 57.8075 43.327 57.76L43.876 54.5129C43.9077 54.3142 43.9971 54.1292 44.1331 53.981C44.2692 53.8327 44.4458 53.7276 44.641 53.679C45.7791 53.3869 46.8698 52.934 47.88 52.334C48.0538 52.2314 48.2534 52.1814 48.455 52.1897C48.6565 52.198 48.8514 52.2646 49.016 52.3811L51.698 54.29C51.7313 54.3157 51.772 54.3298 51.814 54.3301C51.8415 54.3304 51.8687 54.3249 51.894 54.3142C51.9193 54.3035 51.9421 54.2879 51.961 54.2681L54.261 51.968C54.2944 51.9334 54.3148 51.8884 54.319 51.8406C54.3232 51.7927 54.3109 51.7449 54.284 51.7051L52.375 49.0149C52.2585 48.8504 52.1921 48.6558 52.184 48.4543C52.1758 48.2529 52.2262 48.0533 52.329 47.8799C52.9288 46.8695 53.3817 45.7791 53.674 44.6411C53.7241 44.4463 53.8297 44.27 53.9779 44.134C54.1261 43.9981 54.3106 43.9082 54.509 43.875L57.755 43.334C57.8027 43.3268 57.8462 43.3026 57.8774 43.2659C57.9087 43.2291 57.9256 43.1823 57.925 43.134H57.932V39.8799C57.9326 39.8317 57.9157 39.785 57.8844 39.7483C57.8532 39.7115 57.8097 39.6872 57.762 39.6799L54.516 39.1311C54.3172 39.0998 54.132 39.0104 53.9836 38.8743C53.8353 38.7382 53.7304 38.5614 53.682 38.366C53.3893 37.2284 52.9365 36.1381 52.337 35.1279C52.2343 34.9541 52.184 34.7543 52.1924 34.5525C52.2007 34.3507 52.2673 34.1557 52.384 33.991L54.293 31.3101C54.3201 31.2701 54.3326 31.2219 54.3284 31.1738C54.3242 31.1257 54.3036 31.0806 54.27 31.0459L51.97 28.7461C51.9508 28.7266 51.9279 28.7111 51.9027 28.7004C51.8775 28.6898 51.8504 28.6842 51.823 28.6841C51.7814 28.6867 51.7414 28.7005 51.707 28.7241L49.04 30.6399C48.8755 30.7568 48.6806 30.8234 48.479 30.8318C48.2774 30.8401 48.0776 30.7899 47.904 30.687C46.8697 30.0769 45.7529 29.6188 44.588 29.3269C44.3914 29.2764 44.2136 29.1699 44.0764 29.0203C43.9391 28.8706 43.8484 28.6842 43.815 28.4839L43.274 25.261C43.2668 25.2133 43.2426 25.1699 43.2058 25.1387C43.1691 25.1074 43.1223 25.0905 43.074 25.0911H39.82C39.7718 25.0905 39.725 25.1074 39.6882 25.1387C39.6515 25.1699 39.6273 25.2133 39.62 25.261L39.064 28.531C39.0282 28.7282 38.9373 28.9112 38.8017 29.0588C38.6661 29.2065 38.4915 29.3126 38.298 29.365C37.1616 29.6614 36.0738 30.1198 35.068 30.7261C34.8929 30.8288 34.692 30.8789 34.4891 30.8706C34.2863 30.8623 34.0901 30.7957 33.924 30.679L31.257 28.7791C31.2179 28.7503 31.1696 28.7367 31.1212 28.741C31.0728 28.7452 31.0276 28.7669 30.994 28.802L28.694 31.1021C28.6608 31.1369 28.6404 31.1822 28.6364 31.2302C28.6324 31.2783 28.645 31.3261 28.672 31.366L30.596 34.0659C30.7138 34.2287 30.7817 34.4224 30.7913 34.6231C30.8008 34.8237 30.7518 35.0228 30.65 35.196C30.0573 36.2096 29.6125 37.3025 29.329 38.4419C29.2787 38.6386 29.1721 38.8163 29.0224 38.9534C28.8727 39.0905 28.6863 39.1812 28.486 39.2141L25.263 39.7549C25.2153 39.7621 25.1719 39.7865 25.1406 39.8232C25.1094 39.86 25.0925 39.9068 25.093 39.9551V43.208C25.0925 43.2562 25.1094 43.3031 25.1406 43.3398C25.1719 43.3766 25.2153 43.4007 25.263 43.408L28.533 43.9641C28.7304 43.9997 28.9136 44.0905 29.0615 44.2261C29.2093 44.3617 29.3156 44.5364 29.368 44.73C29.664 45.8663 30.122 46.9541 30.728 47.96C30.8309 48.1352 30.8812 48.3363 30.8731 48.5393C30.8649 48.7423 30.7986 48.9386 30.682 49.105L28.782 51.771C28.755 51.8108 28.7425 51.8586 28.7467 51.9065C28.7509 51.9544 28.7715 51.9994 28.805 52.0339L31.105 54.334C31.1243 54.3534 31.1472 54.3687 31.1724 54.3792C31.1976 54.3896 31.2247 54.3951 31.252 54.395C31.2934 54.3927 31.3334 54.3796 31.368 54.3569L34.073 52.4319C34.2475 52.3055 34.4576 52.2381 34.673 52.239C34.8577 52.2393 35.0392 52.2871 35.2 52.3779L35.198 52.3789ZM33.52 41.4961C33.5202 39.9171 33.9886 38.3736 34.866 37.0608C35.7434 35.748 36.9903 34.7248 38.4492 34.1206C39.908 33.5164 41.5132 33.3584 43.0619 33.6665C44.6105 33.9746 46.033 34.735 47.1496 35.8516C48.2661 36.9681 49.0265 38.3906 49.3346 39.9392C49.6427 41.4879 49.4846 43.0932 48.8805 44.552C48.2763 46.0109 47.2531 47.2576 45.9403 48.135C44.6275 49.0124 43.084 49.4808 41.505 49.481C39.3874 49.4799 37.3569 48.6381 35.8596 47.1406C34.3623 45.6432 33.5208 43.6127 33.52 41.4951V41.4961ZM35.607 41.4961C35.607 42.663 35.953 43.8037 36.6013 44.7739C37.2496 45.7442 38.1711 46.5002 39.2492 46.9468C40.3273 47.3933 41.5136 47.5104 42.658 47.2827C43.8025 47.0551 44.8538 46.4931 45.6789 45.668C46.5041 44.8428 47.066 43.7915 47.2937 42.647C47.5213 41.5025 47.4045 40.3164 46.9579 39.2383C46.5114 38.1602 45.7551 37.2386 44.7849 36.5903C43.8146 35.942 42.6739 35.596 41.507 35.596C39.9424 35.596 38.4419 36.2175 37.3354 37.3237C36.229 38.43 35.6073 39.9305 35.607 41.4951V41.4961Z" fill="#40975F"/>
</svg>
