<svg width="82" height="82" viewBox="0 0 82 82" fill="none" xmlns="http://www.w3.org/2000/svg">
<path d="M54 0H28C12.536 0 0 12.536 0 28V54C0 69.464 12.536 82 28 82H54C69.464 82 82 69.464 82 54V28C82 12.536 69.464 0 54 0Z" fill="#EAF9FF"/>
<path d="M30.653 61C30.5319 60.9996 30.412 60.9752 30.3002 60.9285C30.1884 60.8817 30.087 60.8135 30.0016 60.7275C29.9163 60.6415 29.8487 60.5396 29.8028 60.4275C29.7569 60.3154 29.7335 60.1951 29.734 60.074V57.8831C29.7322 57.1494 30.0214 56.4449 30.5383 55.9243C31.0552 55.4037 31.7574 55.1094 32.4911 55.106H34.2V50.8589C34.1991 50.6521 34.2675 50.4513 34.3944 50.2881C34.5214 50.1249 34.6994 50.0089 34.9001 49.959H34.912C35.9085 49.7252 36.7863 49.1379 37.3824 48.3059C37.9784 47.4739 38.2523 46.4537 38.153 45.4351C35.8782 44.3692 34.0107 42.5939 32.831 40.376C32.3585 39.5711 31.9438 38.7338 31.5901 37.8701C29.6033 36.776 27.891 35.2449 26.5824 33.3923C25.2738 31.5398 24.4031 29.4142 24.036 27.176C23.9701 26.7653 23.9941 26.3452 24.1061 25.9446C24.2182 25.544 24.4157 25.1722 24.6851 24.8552C24.9546 24.5383 25.2895 24.2835 25.6668 24.1084C26.0442 23.9333 26.455 23.8422 26.871 23.8411H29.646V22.967C29.6444 22.4488 29.8486 21.9511 30.2137 21.5833C30.5787 21.2154 31.0748 21.0073 31.593 21.0049H50.407C50.9253 21.0073 51.4216 21.2154 51.7868 21.5833C52.152 21.9511 52.3563 22.4487 52.355 22.967V23.8411H55.1291C55.545 23.8423 55.9557 23.9337 56.333 24.1089C56.7102 24.284 57.0451 24.5388 57.3145 24.8557C57.5839 25.1726 57.7815 25.544 57.8936 25.9446C58.0057 26.3451 58.0297 26.7653 57.964 27.176C57.597 29.4141 56.7265 31.5396 55.4181 33.3921C54.1097 35.2446 52.3976 36.7759 50.411 37.8701C50.0566 38.7337 49.6416 39.571 49.169 40.376C48.0016 42.5625 46.1689 44.3209 43.936 45.397C43.8263 46.4215 44.0949 47.4508 44.6913 48.291C45.2876 49.1313 46.1707 49.7245 47.174 49.959H47.185C47.3869 50.0076 47.5666 50.1228 47.6949 50.2861C47.8231 50.4494 47.8926 50.6512 47.8921 50.8589V55.106H49.592C50.3257 55.1094 51.0281 55.4037 51.5451 55.9243C52.0622 56.4449 52.3516 57.1493 52.35 57.8831V60.074C52.3504 60.1952 52.3269 60.3154 52.2809 60.4275C52.2349 60.5396 52.1672 60.6416 52.0818 60.7275C51.9964 60.8135 51.8948 60.882 51.783 60.9287C51.6712 60.9755 51.5512 60.9996 51.43 61H30.653ZM31.5721 57.8821V59.1479H50.516V57.8821C50.5166 57.6376 50.4201 57.4029 50.2478 57.2295C50.0755 57.0561 49.8415 56.9581 49.597 56.957H32.4911C32.2468 56.9581 32.0129 57.0558 31.8406 57.229C31.6683 57.4022 31.5718 57.6368 31.5721 57.8811V57.8821ZM36.034 55.105H46.055V51.7839H36.034V55.105ZM39.0641 49.115C38.8804 49.404 38.673 49.6772 38.444 49.9319H43.653C42.6582 48.8315 42.097 47.4073 42.074 45.9241C41.7184 45.9766 41.3594 46.0019 41 46C40.6695 46 40.3394 45.9771 40.0121 45.9319C39.9989 47.0602 39.6705 48.1625 39.0641 49.114V49.115ZM31.484 22.9619V27.3911C31.393 31.5894 32.4021 35.7384 34.411 39.426C36.211 42.476 38.55 44.155 41 44.155C43.45 44.155 45.79 42.477 47.589 39.426C49.598 35.7384 50.6071 31.5894 50.516 27.3911V22.9619C50.5162 22.9474 50.5134 22.9331 50.508 22.9197C50.5025 22.9062 50.4944 22.8939 50.4842 22.8835C50.4739 22.8732 50.4617 22.865 50.4483 22.8594C50.4349 22.8538 50.4206 22.8511 50.406 22.8511H31.593C31.564 22.8513 31.5363 22.8629 31.5159 22.8835C31.4955 22.9041 31.484 22.9319 31.484 22.9609V22.9619ZM52.354 27.3911C52.3638 29.9645 52.0343 32.5277 51.3741 35.0149C53.9194 32.9867 55.6207 30.0856 56.148 26.874C56.1721 26.7294 56.1641 26.5811 56.1245 26.4399C56.0849 26.2988 56.0148 26.1679 55.919 26.0569C55.822 25.9412 55.7008 25.8481 55.564 25.7842C55.4272 25.7203 55.2781 25.6872 55.127 25.687H52.3531L52.354 27.3911ZM26.079 26.0559C25.9831 26.1671 25.913 26.2981 25.8734 26.4395C25.8338 26.5808 25.8258 26.7292 25.85 26.874C26.3777 30.0857 28.0794 32.9868 30.625 35.0149C29.9651 32.5276 29.6359 29.9644 29.646 27.3911V25.6909H26.871C26.7206 25.6904 26.5719 25.7228 26.4353 25.7856C26.2987 25.8485 26.1775 25.9404 26.08 26.0549L26.079 26.0559ZM37.5511 37.1121C37.4121 37.0101 37.3043 36.8713 37.2398 36.7114C37.1754 36.5516 37.1567 36.3769 37.186 36.207L37.659 33.4241L35.652 31.4541C35.5292 31.3329 35.4425 31.18 35.4016 31.0125C35.3606 30.8449 35.367 30.669 35.42 30.5049C35.4724 30.3409 35.5696 30.195 35.7008 30.0835C35.8319 29.972 35.9917 29.8993 36.162 29.874L38.935 29.468L40.175 26.937C40.25 26.7821 40.3671 26.6515 40.513 26.5601C40.6588 26.4686 40.8274 26.4202 40.9995 26.4202C41.1717 26.4202 41.3403 26.4686 41.4861 26.5601C41.6319 26.6515 41.749 26.7821 41.824 26.937L43.063 29.468L45.836 29.874C46.0066 29.8998 46.1665 29.9725 46.2979 30.0842C46.4294 30.1959 46.527 30.3422 46.5799 30.5063C46.6328 30.6705 46.6388 30.8463 46.5973 31.0137C46.5558 31.1811 46.4684 31.3336 46.345 31.4541L44.339 33.4241L44.812 36.207C44.8411 36.3769 44.8224 36.5514 44.7579 36.7112C44.6934 36.871 44.5858 37.0099 44.4471 37.1121C44.2904 37.2268 44.1012 37.2888 43.907 37.2891C43.7581 37.2896 43.6114 37.2532 43.48 37.1831L41 35.8689L38.52 37.1831C38.3685 37.2633 38.1975 37.2992 38.0265 37.2869C37.8555 37.2745 37.6914 37.2142 37.553 37.113L37.5511 37.1121ZM41.4261 34.0029L42.686 34.6699L42.445 33.2571C42.4199 33.1093 42.4309 32.9575 42.4771 32.8149C42.5232 32.6723 42.6032 32.543 42.7101 32.438L43.73 31.438L42.3221 31.2319C42.1742 31.2103 42.034 31.1529 41.9134 31.0647C41.7928 30.9765 41.6955 30.8604 41.63 30.7261L41 29.4399L40.37 30.7261C40.3046 30.8604 40.2073 30.9765 40.0867 31.0647C39.9661 31.1529 39.8258 31.2103 39.678 31.2319L38.269 31.438L39.289 32.438C39.3958 32.5431 39.4755 32.6726 39.5215 32.8152C39.5674 32.9578 39.5782 33.1094 39.553 33.2571L39.313 34.6699L40.573 34.0029C40.7047 33.9331 40.8515 33.8967 41.0005 33.8967C41.1496 33.8967 41.2963 33.9331 41.428 34.0029H41.4261Z" fill="#3DABDD"/>
</svg>
