<svg width="110" height="110" viewBox="0 0 110 110" fill="none" xmlns="http://www.w3.org/2000/svg">
<path opacity="0.102" d="M75 0H35C15.67 0 0 15.67 0 35V75C0 94.33 15.67 110 35 110H75C94.33 110 110 94.33 110 75V35C110 15.67 94.33 0 75 0Z" fill="#FF4361"/>
<path d="M56.227 84.0001C56.181 84.0001 56.136 84.0001 56.09 84.0001C54.1735 83.9988 52.2633 83.7781 50.397 83.3422C50.1526 83.2846 49.941 83.1324 49.8087 82.9191C49.6763 82.7057 49.634 82.4486 49.691 82.2041C49.7171 82.0828 49.7671 81.968 49.8381 81.8662C49.9091 81.7644 49.9996 81.6778 50.1044 81.6115C50.2093 81.5451 50.3263 81.5003 50.4486 81.4796C50.571 81.459 50.6962 81.4628 50.817 81.4911C52.2906 81.8306 53.7936 82.0269 55.305 82.0771V80.2001C55.3009 80.0741 55.3221 79.9486 55.3675 79.8311C55.4129 79.7135 55.4814 79.6063 55.5691 79.5157C55.6567 79.4252 55.7617 79.3531 55.8777 79.304C55.9937 79.2548 56.1185 79.2295 56.2445 79.2295C56.3705 79.2295 56.4952 79.2548 56.6113 79.304C56.7273 79.3531 56.8323 79.4252 56.9199 79.5157C57.0076 79.6063 57.0761 79.7135 57.1215 79.8311C57.1668 79.9486 57.1881 80.0741 57.184 80.2001V82.0691C60.6191 81.9112 63.9756 80.9888 67.009 79.3691L66.083 77.7482C65.9571 77.53 65.9226 77.2708 65.987 77.0272C66.0514 76.7837 66.2096 76.5755 66.427 76.4481C66.5338 76.3856 66.6519 76.345 66.7745 76.3286C66.8972 76.3122 67.0218 76.3205 67.1412 76.3528C67.2607 76.3851 67.3724 76.4408 67.4701 76.5167C67.5677 76.5927 67.6493 76.6874 67.71 76.7952L68.633 78.4131C71.58 76.5188 74.0726 73.9976 75.933 71.0292L74.333 70.0951C74.116 69.9674 73.9582 69.7593 73.8938 69.5159C73.8294 69.2725 73.8636 69.0135 73.989 68.7952C74.0498 68.6875 74.1314 68.5928 74.2291 68.517C74.3267 68.4411 74.4385 68.3854 74.5579 68.3531C74.6772 68.3209 74.8019 68.3127 74.9245 68.329C75.0471 68.3453 75.1652 68.3857 75.272 68.4481L76.872 69.3851C78.5006 66.2619 79.415 62.8159 79.549 59.2961H77.7C77.4481 59.2961 77.2064 59.196 77.0283 59.0178C76.8501 58.8397 76.75 58.598 76.75 58.3461C76.75 58.0941 76.8501 57.8525 77.0283 57.6743C77.2064 57.4962 77.4481 57.3961 77.7 57.3961H79.556C79.422 53.877 78.5076 50.4316 76.879 47.3091L75.279 48.2451C75.1369 48.3289 74.975 48.3731 74.81 48.3732C74.6445 48.373 74.4819 48.3288 74.3389 48.2454C74.1959 48.1619 74.0776 48.0421 73.996 47.8981C73.8704 47.68 73.8359 47.4212 73.9 47.1779C73.964 46.9345 74.1214 46.7262 74.338 46.5981L75.938 45.6652C74.0776 42.6964 71.585 40.1747 68.638 38.2802L67.715 39.8981C67.6336 40.0425 67.5151 40.1626 67.3719 40.2461C67.2287 40.3296 67.0658 40.3734 66.9 40.3732C66.7352 40.3735 66.5732 40.3296 66.431 40.2461C66.2139 40.1185 66.0558 39.9105 65.9912 39.6671C65.9266 39.4237 65.9607 39.1646 66.086 38.9462L67.013 37.3241C63.9797 35.7043 60.6231 34.7819 57.188 34.6241V36.4951C57.188 36.7444 57.0889 36.9835 56.9127 37.1598C56.7364 37.3361 56.4973 37.4352 56.248 37.4352C55.9987 37.4352 55.7596 37.3361 55.5833 37.1598C55.407 36.9835 55.308 36.7444 55.308 36.4951V34.6182C55.032 34.6312 54.748 34.6491 54.44 34.6721L53.431 34.7501C52.5526 34.8527 51.6805 35.0043 50.819 35.2041C50.6981 35.2319 50.5729 35.2355 50.4507 35.2146C50.3284 35.1937 50.2116 35.1488 50.1068 35.0824C50.0021 35.016 49.9116 34.9294 49.8405 34.8278C49.7695 34.7261 49.7193 34.6113 49.693 34.4901C49.636 34.2456 49.6783 33.9885 49.8107 33.7751C49.943 33.5618 50.1546 33.4097 50.399 33.3522C51.3975 33.1217 52.409 32.9517 53.428 32.8431V31.7432H52.019C51.3977 31.7304 50.8061 31.4746 50.3712 31.0306C49.9363 30.5867 49.6927 29.9901 49.6927 29.3687C49.6927 28.7472 49.9363 28.1505 50.3712 27.7065C50.8061 27.2626 51.3977 27.0069 52.019 26.9941H60.476C61.0973 27.0069 61.6889 27.2626 62.1238 27.7065C62.5587 28.1505 62.8022 28.7472 62.8022 29.3687C62.8022 29.9901 62.5587 30.5867 62.1238 31.0306C61.6889 31.4746 61.0973 31.7304 60.476 31.7432H59.067V32.8751C62.4724 33.2796 65.7582 34.3805 68.72 36.1091C68.74 36.1201 68.761 36.1181 68.78 36.1301C68.799 36.1421 68.809 36.1601 68.827 36.1721C70.4543 37.1304 71.9699 38.2668 73.346 39.5602L75.365 37.5211L74.036 36.1761L78.023 32.1461L82.009 36.1761L78.023 40.2062L76.694 38.8632L74.676 40.9031C75.957 42.2981 77.0804 43.83 78.026 45.4711C78.039 45.4881 78.056 45.5001 78.067 45.5181C78.078 45.5361 78.077 45.5591 78.087 45.5791C80.3014 49.4688 81.4659 53.8677 81.4659 58.3436C81.4659 62.8195 80.3014 67.2184 78.087 71.1082C78.077 71.1282 78.078 71.1491 78.067 71.1681C78.056 71.1871 78.028 71.2172 78.01 71.2432C75.7976 75.0729 72.6342 78.2669 68.826 80.5161C68.808 80.5281 68.798 80.5461 68.779 80.5571C68.7504 80.5714 68.721 80.5841 68.691 80.5951C64.9177 82.7917 60.635 83.9619 56.269 83.9891C56.261 83.9891 56.255 83.9891 56.246 83.9891C56.237 83.9891 56.233 84.0001 56.227 84.0001ZM76.688 36.1862L78.018 37.5311L79.346 36.1862L78.018 34.8422L76.688 36.1862ZM57.188 32.7251V29.8551H60.477C60.603 29.8551 60.7238 29.805 60.8129 29.7159C60.9019 29.6269 60.952 29.5061 60.952 29.3801C60.952 29.2541 60.9019 29.1333 60.8129 29.0442C60.7238 28.9551 60.603 28.9052 60.477 28.9052H52.02C51.894 28.9052 51.7732 28.9551 51.6841 29.0442C51.5951 29.1333 51.545 29.2541 51.545 29.3801C51.545 29.5061 51.5951 29.6269 51.6841 29.7159C51.7732 29.805 51.894 29.8551 52.02 29.8551H55.3V32.7251C55.413 32.7201 55.516 32.7251 55.625 32.7181C55.779 32.7181 55.933 32.7051 56.087 32.7051H56.158H56.24C56.544 32.7001 56.856 32.7061 57.183 32.7201L57.188 32.7251ZM41.213 75.4541C40.9611 75.4541 40.7194 75.3541 40.5413 75.1759C40.3631 74.9977 40.263 74.7561 40.263 74.5042C40.263 74.2522 40.3631 74.0106 40.5413 73.8324C40.7194 73.6542 40.9611 73.5541 41.213 73.5541H47.79C48.0419 73.5541 48.2836 73.6542 48.4617 73.8324C48.6399 74.0106 48.74 74.2522 48.74 74.5042C48.74 74.7561 48.6399 74.9977 48.4617 75.1759C48.2836 75.3541 48.0419 75.4541 47.79 75.4541H41.213ZM35.575 68.8041C35.3231 68.8041 35.0814 68.704 34.9033 68.5259C34.7251 68.3477 34.625 68.1061 34.625 67.8541C34.625 67.6022 34.7251 67.3605 34.9033 67.1824C35.0814 67.0042 35.3231 66.9042 35.575 66.9042H47.791C48.043 66.9042 48.2846 67.0042 48.4628 67.1824C48.6409 67.3605 48.741 67.6022 48.741 67.8541C48.741 68.1061 48.6409 68.3477 48.4628 68.5259C48.2846 68.704 48.043 68.8041 47.791 68.8041H35.575ZM54.41 62.1122C54.0677 61.7645 53.804 61.3474 53.6368 60.889C53.4695 60.4307 53.4026 59.9419 53.4405 59.4554C53.4784 58.969 53.6203 58.4964 53.8566 58.0696C54.0928 57.6427 54.418 57.2715 54.81 56.9811L66.975 48.0812C67.1559 47.9496 67.3781 47.8872 67.6011 47.9055C67.8241 47.9239 68.033 48.0217 68.19 48.1812C68.3484 48.3414 68.4453 48.5523 68.4636 48.7769C68.4819 49.0014 68.4204 49.2254 68.29 49.4092L59.49 61.7091C59.2075 62.1047 58.8419 62.4338 58.4189 62.6732C57.9958 62.9126 57.5256 63.0566 57.041 63.0951C56.952 63.1021 56.865 63.1061 56.777 63.1061C56.335 63.1057 55.8976 63.0171 55.4904 62.8456C55.0831 62.674 54.7141 62.4231 54.405 62.1072L54.41 62.1122ZM55.91 58.5171C55.6492 58.7069 55.4573 58.9764 55.3633 59.2849C55.2692 59.5934 55.2782 59.9241 55.3888 60.2271C55.4994 60.53 55.7056 60.7887 55.9763 60.9641C56.2469 61.1395 56.5673 61.222 56.889 61.1991C57.1016 61.1821 57.308 61.1188 57.4937 61.0138C57.6793 60.9088 57.8398 60.7645 57.964 60.5911L63.331 53.0911L55.91 58.5171ZM29.934 62.1531C29.6821 62.1531 29.4404 62.053 29.2623 61.8749C29.0841 61.6967 28.984 61.4551 28.984 61.2031C28.984 60.9512 29.0841 60.7095 29.2623 60.5314C29.4404 60.3532 29.6821 60.2532 29.934 60.2532H47.788C48.04 60.2532 48.2816 60.3532 48.4598 60.5314C48.6379 60.7095 48.738 60.9512 48.738 61.2031C48.738 61.4551 48.6379 61.6967 48.4598 61.8749C48.2816 62.053 48.04 62.1531 47.788 62.1531H29.934ZM33.693 55.5042C33.441 55.5042 33.1994 55.404 33.0212 55.2258C32.8431 55.0477 32.743 54.806 32.743 54.5541C32.743 54.3021 32.8431 54.0605 33.0212 53.8823C33.1994 53.7042 33.441 53.6041 33.693 53.6041H47.788C48.04 53.6041 48.2816 53.7042 48.4598 53.8823C48.6379 54.0605 48.738 54.3021 48.738 54.5541C48.738 54.806 48.6379 55.0477 48.4598 55.2258C48.2816 55.404 48.04 55.5042 47.788 55.5042H33.693ZM38.393 48.8531C38.141 48.8531 37.8994 48.753 37.7213 48.5748C37.5431 48.3967 37.443 48.155 37.443 47.9031C37.443 47.6511 37.5431 47.4095 37.7213 47.2313C37.8994 47.0532 38.141 46.9531 38.393 46.9531H47.793C48.045 46.9531 48.2866 47.0532 48.4647 47.2313C48.6429 47.4095 48.743 47.6511 48.743 47.9031C48.743 48.155 48.6429 48.3967 48.4647 48.5748C48.2866 48.753 48.045 48.8531 47.793 48.8531H38.393ZM43.093 42.2031C42.8411 42.2031 42.5994 42.1031 42.4213 41.9249C42.2431 41.7468 42.143 41.5051 42.143 41.2532C42.143 41.0012 42.2431 40.7596 42.4213 40.5814C42.5994 40.4033 42.8411 40.3031 43.093 40.3031H47.793C48.045 40.3031 48.2866 40.4033 48.4647 40.5814C48.6429 40.7596 48.743 41.0012 48.743 41.2532C48.743 41.5051 48.6429 41.7468 48.4647 41.9249C48.2866 42.1031 48.045 42.2031 47.793 42.2031H43.093Z" fill="#FF4361"/>
</svg>
