<svg width="110" height="110" viewBox="0 0 110 110" fill="none" xmlns="http://www.w3.org/2000/svg">
<path d="M75 0H35C15.67 0 0 15.67 0 35V75C0 94.33 15.67 110 35 110H75C94.33 110 110 94.33 110 75V35C110 15.67 94.33 0 75 0Z" fill="#E4FFEE"/>
<path d="M79.4789 66.589L79.3599 62.8541C79.351 62.5425 79.2807 62.2357 79.153 61.9513C79.0253 61.667 78.8427 61.4106 78.6158 61.1969C78.3888 60.9833 78.1219 60.8166 77.8304 60.7062C77.5389 60.5959 77.2285 60.5441 76.9169 60.554L76.41 60.569C75.4554 56.4766 73.3105 52.7584 70.2459 49.8831L70.2139 49.8531C68.3248 48.068 66.1258 46.6426 63.7249 45.647L70.274 45.4471C70.6496 46.4154 71.3556 47.2197 72.2672 47.7176C73.1787 48.2154 74.237 48.3748 75.2547 48.1674C76.2724 47.96 77.184 47.3992 77.8281 46.5844C78.4721 45.7696 78.8073 44.7531 78.774 43.715C78.7379 42.5474 78.2406 41.4417 77.3909 40.6401C76.9708 40.2419 76.4755 39.9316 75.9339 39.7272C75.3923 39.5229 74.8154 39.4286 74.237 39.45C73.071 39.4836 71.966 39.979 71.165 40.8271C70.7178 41.3039 70.381 41.8734 70.1789 42.495L58.3879 42.8481L58.3749 42.448C58.3661 42.1364 58.2959 41.8296 58.1683 41.5452C58.0406 41.2608 57.858 41.0044 57.631 40.7907C57.4041 40.577 57.1372 40.4103 56.8456 40.3C56.5541 40.1897 56.2435 40.138 55.9319 40.148L52.1579 40.2531C51.8469 40.2615 51.5407 40.3312 51.2569 40.4585C50.9731 40.5858 50.7173 40.7682 50.5042 40.9948C50.2911 41.2214 50.1251 41.488 50.0156 41.7791C49.906 42.0702 49.8551 42.3802 49.8659 42.6911L49.879 43.091L38.088 43.445C37.7124 42.4766 37.0063 41.6723 36.0948 41.1745C35.1832 40.6766 34.1249 40.5173 33.1071 40.7247C32.0894 40.932 31.1778 41.4928 30.5338 42.3077C29.8897 43.1225 29.5547 44.1389 29.588 45.177C29.6202 46.2134 30.0174 47.205 30.7095 47.9771C31.4016 48.7492 32.3441 49.252 33.3708 49.3969C34.3975 49.5418 35.4423 49.3195 36.3211 48.7692C37.1999 48.2189 37.856 47.376 38.1739 46.3891L44.723 46.189C41.6703 47.6836 39.0164 49.8823 36.9802 52.6038C34.9439 55.3253 33.5834 58.4917 33.0109 61.8421L32.3809 61.861C31.7518 61.8811 31.1565 62.15 30.7253 62.6086C30.2941 63.0671 30.0624 63.6779 30.081 64.3071L30.1999 68.0571C30.2087 68.3687 30.2789 68.6755 30.4066 68.9599C30.5342 69.2443 30.7168 69.5007 30.9438 69.7144C31.1708 69.9281 31.4377 70.0948 31.7293 70.2051C32.0209 70.3154 32.3313 70.3671 32.6429 70.3571L36.394 70.245C37.023 70.2247 37.6183 69.9557 38.0494 69.4972C38.4805 69.0388 38.7122 68.4281 38.6939 67.799L38.5749 64.048C38.5662 63.7364 38.4961 63.4295 38.3685 63.1451C38.2409 62.8606 38.0584 62.6041 37.8314 62.3904C37.6044 62.1767 37.3374 62.0099 37.0457 61.8997C36.7541 61.7895 36.4435 61.738 36.1319 61.7481H36.024C36.7475 58.2354 38.4749 55.008 40.9968 52.4579C43.5186 49.9078 46.7264 48.1445 50.2309 47.382C50.355 47.6492 50.5299 47.8897 50.7459 48.09C50.973 48.3038 51.2401 48.4706 51.5318 48.5807C51.8236 48.6909 52.1343 48.7424 52.446 48.7321L56.197 48.62C56.656 48.6055 57.101 48.4579 57.4777 48.1951C57.8545 47.9324 58.1467 47.5658 58.3189 47.1401C61.8684 47.6909 65.1826 49.2577 67.8609 51.6512C70.5392 54.0447 72.4672 57.1626 73.4119 60.6281L73.181 60.6351C72.552 60.6554 71.9567 60.9244 71.5256 61.3829C71.0945 61.8413 70.8626 62.452 70.8809 63.0811L70.9999 66.8311C71.0087 67.1427 71.079 67.4495 71.2066 67.7339C71.3343 68.0183 71.5169 68.2748 71.7438 68.4885C71.9708 68.7021 72.2377 68.8689 72.5292 68.9792C72.8208 69.0895 73.1314 69.141 73.4429 69.131L77.1939 69.0191C77.5037 69.0102 77.8087 68.9401 78.0914 68.813C78.374 68.686 78.6288 68.5044 78.8411 68.2786C79.0534 68.0528 79.219 67.7874 79.3284 67.4975C79.4379 67.2075 79.4891 66.8988 79.4789 66.589V66.589ZM35.7259 67.3471L33.097 67.4261L33.0129 64.797L35.6419 64.7181L35.7259 67.3471ZM74.3089 42.387C74.5966 42.3788 74.8803 42.4562 75.1241 42.6092C75.3679 42.7622 75.561 42.984 75.6788 43.2466C75.7966 43.5093 75.8338 43.8008 75.7859 44.0846C75.7381 44.3685 75.6072 44.6318 75.4097 44.8412C75.2123 45.0507 74.9572 45.1969 74.6767 45.2614C74.3962 45.3259 74.1029 45.3059 73.8338 45.2038C73.5647 45.1017 73.3318 44.9222 73.1647 44.6878C72.9976 44.4534 72.9038 44.1747 72.895 43.887C72.8896 43.6955 72.9221 43.5049 72.9908 43.3261C73.0594 43.1473 73.1629 42.9837 73.295 42.845C73.56 42.5656 73.924 42.4011 74.3089 42.387V42.387ZM34.0259 46.5251C33.7382 46.5332 33.4546 46.4559 33.2108 46.3029C32.9669 46.1499 32.774 45.9282 32.6562 45.6656C32.5384 45.403 32.501 45.1113 32.5489 44.8274C32.5968 44.5436 32.7277 44.2803 32.9251 44.0708C33.1225 43.8614 33.3776 43.7152 33.6581 43.6507C33.9386 43.5861 34.232 43.6062 34.5012 43.7083C34.7703 43.8104 35.003 43.9901 35.1701 44.2244C35.3372 44.4588 35.4311 44.7374 35.4399 45.0251C35.4457 45.2166 35.4139 45.4073 35.3459 45.5865C35.2779 45.7656 35.1752 45.9296 35.0438 46.069C34.9123 46.2084 34.7547 46.3207 34.5799 46.3991C34.4051 46.4775 34.2165 46.5206 34.025 46.526L34.0259 46.5251ZM52.899 45.8061L52.8149 43.177L55.4439 43.0981L55.4859 44.4051L55.5279 45.7121L52.899 45.8061ZM73.905 66.194L73.821 63.565L76.4499 63.4871L76.534 66.116L73.905 66.194Z" fill="#40975F"/>
</svg>
