<svg width="82" height="82" viewBox="0 0 82 82" fill="none" xmlns="http://www.w3.org/2000/svg">
<path d="M54 0H28C12.536 0 0 12.536 0 28V54C0 69.464 12.536 82 28 82H54C69.464 82 82 69.464 82 54V28C82 12.536 69.464 0 54 0Z" fill="#F4F4FF"/>
<path d="M46.684 59.6179L43.368 56.238L40.051 59.6179C39.9338 59.7378 39.7938 59.8332 39.6392 59.8982C39.4847 59.9632 39.3187 59.9966 39.151 59.9966C38.9833 59.9966 38.8173 59.9632 38.6628 59.8982C38.5082 59.8332 38.3682 59.7378 38.251 59.6179C38.011 59.3718 37.8768 59.0417 37.8768 58.698C37.8768 58.3543 38.011 58.0242 38.251 57.7781L41.568 54.3979L38.251 51.019C38.011 50.7729 37.8768 50.4429 37.8768 50.0991C37.8768 49.7554 38.011 49.4251 38.251 49.179C38.3683 49.0592 38.5084 48.9641 38.6629 48.8992C38.8174 48.8342 38.9834 48.8008 39.151 48.8008C39.3186 48.8008 39.4846 48.8342 39.6391 48.8992C39.7936 48.9641 39.9337 49.0592 40.051 49.179L43.368 52.5591L46.684 49.179C46.8013 49.0592 46.9413 48.9641 47.0959 48.8992C47.2504 48.8342 47.4164 48.8008 47.584 48.8008C47.7516 48.8008 47.9176 48.8342 48.0721 48.8992C48.2267 48.9641 48.3667 49.0592 48.484 49.179C48.7237 49.4252 48.8578 49.7555 48.8578 50.0991C48.8578 50.4428 48.7237 50.7728 48.484 51.019L45.168 54.3979L48.484 57.7781C48.7239 58.0242 48.8582 58.3543 48.8582 58.698C48.8582 59.0417 48.7239 59.3718 48.484 59.6179C48.3668 59.7378 48.2268 59.8332 48.0722 59.8982C47.9177 59.9632 47.7517 59.9966 47.584 59.9966C47.4163 59.9966 47.2504 59.9632 47.0958 59.8982C46.9413 59.8332 46.8013 59.7378 46.684 59.6179ZM22.119 53.78C22.1326 53.0372 22.3653 52.3149 22.7878 51.7039C23.2104 51.0928 23.8041 50.6203 24.4943 50.3455C25.1845 50.0706 25.9405 50.0059 26.6674 50.1592C27.3943 50.3125 28.0598 50.6769 28.5803 51.207C29.1007 51.7372 29.453 52.4093 29.5929 53.1389C29.7328 53.8685 29.6541 54.6233 29.3666 55.3083C29.0791 55.9934 28.5957 56.5782 27.977 56.9895C27.3583 57.4008 26.6319 57.6202 25.889 57.6201C24.8801 57.6103 23.9163 57.2003 23.2096 56.4802C22.5028 55.7602 22.1109 54.7889 22.12 53.78H22.119ZM25.891 47.8C25.6307 47.8002 25.3708 47.8182 25.113 47.854C25.9174 44.9404 27.2421 42.1962 29.023 39.7539C30.8379 37.2641 33.1509 35.1793 35.8151 33.6316C38.4792 32.0839 41.4361 31.1072 44.498 30.7639L41.769 28.3459C41.513 28.117 41.3566 27.7972 41.3331 27.4546C41.3095 27.112 41.4208 26.7737 41.643 26.512C41.7514 26.3833 41.8845 26.2778 42.0344 26.2014C42.1843 26.1251 42.348 26.0794 42.5157 26.0674C42.6835 26.0554 42.852 26.0772 43.0113 26.1313C43.1705 26.1855 43.3174 26.2712 43.443 26.3831L48.588 30.9431C48.844 31.1722 49.0005 31.4922 49.024 31.835C49.0475 32.1777 48.9363 32.5161 48.714 32.7781L44.241 38.0229C44.1326 38.1516 43.9995 38.2574 43.8495 38.3337C43.6996 38.4101 43.5359 38.4556 43.368 38.4675C43.2002 38.4795 43.0317 38.4574 42.8724 38.4031C42.7132 38.3487 42.5665 38.2629 42.441 38.1509C42.185 37.9219 42.0286 37.6021 42.0051 37.2595C41.9815 36.9169 42.0928 36.5787 42.315 36.3169L44.858 33.335C42.1454 33.6171 39.5222 34.4652 37.1577 35.8242C34.7932 37.1833 32.7401 39.0232 31.131 41.2251C29.608 43.3043 28.4492 45.6268 27.704 48.094C27.1197 47.8994 26.5079 47.8002 25.892 47.8H25.891ZM53.459 31.6709C53.4724 30.9281 53.7049 30.2059 54.1274 29.5947C54.5498 28.9836 55.1434 28.5108 55.8336 28.2358C56.5238 27.9609 57.2798 27.8959 58.0068 28.0491C58.7338 28.2022 59.3994 28.5666 59.92 29.0967C60.4405 29.6268 60.7929 30.2989 60.9329 31.0286C61.0728 31.7582 60.9941 32.5129 60.7067 33.198C60.4192 33.8831 59.9358 34.4681 59.3171 34.8794C58.6984 35.2907 57.972 35.5101 57.229 35.51C56.2203 35.5002 55.2567 35.0905 54.55 34.3706C53.8433 33.6508 53.4512 32.6796 53.46 31.6709H53.459ZM29.811 33.8191L26.494 30.439L23.178 33.8191C23.0607 33.9388 22.9207 34.0339 22.7661 34.0989C22.6116 34.1638 22.4456 34.1973 22.278 34.1973C22.1104 34.1973 21.9444 34.1638 21.7899 34.0989C21.6353 34.0339 21.4953 33.9388 21.378 33.8191C21.1381 33.573 21.0038 33.2427 21.0038 32.8989C21.0038 32.5552 21.1381 32.2251 21.378 31.979L24.695 28.5991L21.378 25.22C21.1381 24.9738 21.0038 24.6438 21.0038 24.3C21.0038 23.9563 21.1381 23.626 21.378 23.3799C21.4952 23.2599 21.6352 23.1647 21.7897 23.0996C21.9443 23.0345 22.1103 23.001 22.278 23.001C22.4457 23.001 22.6117 23.0345 22.7663 23.0996C22.9209 23.1647 23.0608 23.2599 23.178 23.3799L26.494 26.76L29.811 23.3799C29.9282 23.2599 30.0682 23.1647 30.2227 23.0996C30.3773 23.0345 30.5433 23.001 30.711 23.001C30.8787 23.001 31.0447 23.0345 31.1993 23.0996C31.3538 23.1647 31.4938 23.2599 31.611 23.3799C31.8505 23.6263 31.9844 23.9565 31.9844 24.3C31.9844 24.6436 31.8505 24.9736 31.611 25.22L28.294 28.6001L31.61 31.979C31.8499 32.2251 31.9842 32.5552 31.9842 32.8989C31.9842 33.2427 31.8499 33.573 31.61 33.8191C31.4927 33.939 31.3527 34.0341 31.1982 34.0991C31.0436 34.1641 30.8777 34.1975 30.71 34.1975C30.5424 34.1975 30.3764 34.1641 30.2218 34.0991C30.0673 34.0341 29.9272 33.939 29.81 33.8191H29.811Z" fill="#5856D6"/>
</svg>
